{"title":"Mob Handed 2016 Movies DVDRip XviD AAC New Source +Sample ☻rDX☻","uid":14998652,"size":738818671,"categoryP":"video","categoryS":"movies","magnet":"?xt=urn:btih:ae218d2445107fa08c5e703fee4cfb754cea426d&amp;dn=Mob+Handed+2016+Movies+DVDRip+XviD+AAC+New+Source+%2BSample+%E2%98%BBrDX%E2%98%BB&amp;tr=udp%3A%2F%2Ftracker.leechers-paradise.org%3A6969&amp;tr=udp%3A%2F%2Fzer0day.ch%3A1337&amp;tr=udp%3A%2F%2Fopen.demonii.com%3A1337&amp;tr=udp%3A%2F%2Ftracker.coppersurfer.tk%3A6969&amp;tr=udp%3A%2F%2Fexodus.desync.com%3A6969","seeders":1,"leechers":1,"uploader":"basicssom","files":2,"time":1466365551,"description":"----------------------------------------------------------------\r\nMob Handed 2016 English Movies DVDRip XviD AAC New Source with Sample ☻rDX☻\r\n\r\nSCREEN SHOTS &amp; POSTER:\r\n  \nhttp://mobileshosting.com/2016/6/buck/index.htm  \nhttp://mobileshosting.com/2016/6/buck/1.html  \nhttp://mobileshosting.com/2016/6/buck/2.html  \nhttp://mobileshosting.com/2016/6/buck/3.html  \nhttp://mobileshosting.com/2016/6/buck/4.html  \nhttp://mobileshosting.com/2016/6/buck/5.html  \nhttp://mobileshosting.com/2016/6/buck/6.html  \nhttp://mobileshosting.com/2016/6/buck/7.html  \nhttp://mobileshosting.com/2016/6/buck/8.html  \nhttp://mobileshosting.com/2016/6/buck/9.html  \nhttp://mobileshosting.com/2016/6/buck/10.html\r\n\r\nFormat                                   : Matroska\r\nFormat version                           : Version 4 / Version 2\r\nFile size                                : 693 MiB\r\nDuration                                 : 1h 36mn\r\nOverall bit rate                         : 1 004 Kbps\r\nMovie name                               : Mob Handed 2016 English Movies DVDRip XviD AAC New Source ☻rDX☻\r\n\r\nVideo\r\nID                                       : 1\r\nFormat                                   : MPEG-4 Visual\r\nFormat profile                           : Advanced   \r\nFormat settings, BVOP                    : Yes\r\nFormat settings, QPel                    : No\r\nFormat settings, GMC                     : No warppoints\r\nFormat settings, Matrix                  : Default (H.263)\r\nCodec ID                                 : V_MS/VFW/FOURCC / XVID\r\nCodec ID/Hint                            : XviD\r\nDuration                                 : 1h 36mn\r\nBit rate                                 : 856 Kbps\r\nWidth                                    : 640 pixels\r\nHeight                                   : 352 pixels\r\nDisplay aspect ratio                     : 16:9\r\nFrame rate mode                          : Constant\r\nFrame rate                               : 25.000 fps\r\nColor space                              : YUV\r\nChroma subsampling                       : 4:2:0\r\nBit depth                                : 8 bits\r\nScan type                                : Progressive\r\nCompression mode                         : Lossy\r\nBits/(Pixel*Frame)                       : 0.152\r\nStream size                              : 591 MiB (85%)\r\nTitle                                    : ☻rDX☻\r\nWriting library                          : XviD 65\r\nDefault                                  : Yes\r\nForced                                   : No\r\n\r\nAudio\r\nID                                       : 2\r\nFormat                                   : MPEG Audio\r\nFormat version                           : Version 1\r\nFormat profile                           : Layer 3\r\nMode                                     : Joint stereo\r\nMode extension                           : MS Stereo\r\nCodec ID                                 : A_MPEG/L3\r\nCodec ID/Hint                            : MP3\r\nDuration                                 : 1h 36mn\r\nBit rate mode                            : Constant\r\nBit rate                                 : 128 Kbps\r\nChannel(s)                               : 2 channels\r\nSampling rate                            : 48.0 KHz\r\nCompression mode                         : Lossy\r\nStream size                              : 88.4 MiB (13%)\r\nTitle                                    : ☻rDX☻\r\nWriting library                          : LAME3.99r\r\nEncoding settings                        : -m j -V 4 -q 3 -lowpass 17 -b 128\r\nDefault                                  : Yes\r\nForced                                   : No\r\n\r\nIMDB \nhttp://www.imdb.com/title/tt2931148/","torrent":{"xt":"urn:btih:ae218d2445107fa08c5e703fee4cfb754cea426d","amp;dn":"Mob+Handed+2016+Movies+DVDRip+XviD+AAC+New+Source+%2BSample+%E2%98%BBrDX%E2%98%BB","amp;tr":["udp%3A%2F%2Ftracker.leechers-paradise.org%3A6969","udp%3A%2F%2Fzer0day.ch%3A1337","udp%3A%2F%2Fopen.demonii.com%3A1337","udp%3A%2F%2Ftracker.coppersurfer.tk%3A6969","udp%3A%2F%2Fexodus.desync.com%3A6969"],"infoHash":"ae218d2445107fa08c5e703fee4cfb754cea426d","infoHashBuffer":{"type":"Buffer","data":[174,33,141,36,69,16,127,160,140,94,112,63,238,76,251,117,76,234,66,109]},"announce":[],"urlList":[]}}